<svg xmlns="http://www.w3.org/2000/svg" viewBox="0 0 91.23929 53.65411">
  <title>VC</title>
  <path d="M96.08009,14.7a24.09774,24.09774,0,0,0-26.72271,7.11461A24.63242,24.63242,0,0,0,63.47057,37.9032c.08707,11.01613,8.48758,21.45147,19.21308,23.93349,4.58844,1.06182,9.04223.28839,13.39644-1.29664v2.4C78.168,69.42149,64.07856,55.462,61.71984,42.31729c-.10266-.57208-.22568-1.14051-.41141-2.07309-.44053.89054-.72979,1.47773-1.02116,2.06387a71.65176,71.65176,0,0,1-8.64461,13.92735A27.34134,27.34134,0,0,1,44.919,62.33406a13.3072,13.3072,0,0,1-14.92891-.0293c-4.07355-2.51055-7.06491-6.09934-9.70437-9.99731C14.79842,44.20371,11.032,35.2666,7.77657,26.096c-.98765-2.78224-1.83174-5.61565-2.7262-8.43051a4.72939,4.72939,0,0,1-.20776-1.17072.965.965,0,0,1,.68886-1.01687.964.964,0,0,1,1.23269.4759,8.13569,8.13569,0,0,1,.53477,1.45184c3.33168,10.8328,7.307,21.3952,13.22227,31.12637a39.52987,39.52987,0,0,0,8.41093,10.24674c2.82936,2.33438,5.94936,3.88507,9.76964,3.46358a13.14573,13.14573,0,0,0,6.6957-2.98683c3.84537-3.00846,6.60742-6.92612,9.111-11.04321a100.4755,100.4755,0,0,0,6.43288-12.718c.82111-1.91793.86244-4.04823,1.55416-6.01544,2.65637-7.55455,7.48786-13.21432,14.85746-16.38034A26.30369,26.30369,0,0,1,96.08009,12.3Z" transform="translate(-4.84081 -10.95603)"/>
</svg>
