<?xml version="1.0" standalone="no"?>
<!DOCTYPE svg PUBLIC "-//W3C//DTD SVG 20010904//EN"
 "http://www.w3.org/TR/2001/REC-SVG-20010904/DTD/svg10.dtd">
<svg version="1.0" xmlns="http://www.w3.org/2000/svg"
 width="1456.000000pt" height="1456.000000pt" viewBox="0 0 1456.000000 1456.000000"
 preserveAspectRatio="xMidYMid meet">
<metadata>
Created by potrace 1.14, written by Peter Selinger 2001-2017
</metadata>
<g transform="translate(0.000000,1456.000000) scale(0.100000,-0.100000)"
fill="#000000" stroke="none">
<path d="M12979 11556 c-2 -2 -40 -7 -84 -10 -106 -8 -171 -15 -275 -31 -14
-2 -45 -7 -70 -10 -25 -4 -63 -10 -85 -15 -22 -5 -53 -11 -70 -14 -41 -8 -63
-13 -115 -25 -49 -13 -74 -19 -105 -25 -11 -2 -72 -21 -135 -41 -63 -20 -122
-36 -130 -37 -8 0 -19 -4 -25 -8 -5 -4 -41 -18 -80 -30 -38 -12 -76 -28 -84
-34 -8 -6 -15 -9 -15 -8 -1 5 -50 -14 -89 -34 -16 -8 -33 -14 -39 -14 -16 0
-367 -174 -451 -224 -43 -25 -80 -46 -83 -46 -3 0 -10 -5 -17 -10 -7 -6 -53
-36 -102 -68 -83 -52 -129 -84 -162 -112 -7 -6 -13 -9 -13 -6 0 2 -10 -4 -22
-14 -13 -11 -70 -57 -128 -102 -142 -113 -155 -124 -280 -243 -60 -56 -194
-197 -252 -265 -77 -90 -82 -96 -108 -130 -41 -54 -79 -103 -103 -134 -12 -15
-26 -37 -31 -47 -5 -11 -13 -19 -18 -19 -4 0 -8 -5 -8 -10 0 -6 -8 -19 -17
-30 -73 -78 -416 -707 -447 -820 -1 -3 -9 -21 -18 -40 -48 -104 -155 -410
-172 -490 -3 -14 -7 -36 -10 -50 -18 -84 -39 -188 -42 -205 -1 -11 -3 -20 -4
-20 -2 0 -7 -21 -14 -65 -13 -70 -28 -145 -34 -160 -3 -8 -7 -25 -9 -38 -6
-34 -71 -220 -98 -277 -12 -27 -42 -95 -65 -149 -23 -54 -46 -106 -50 -115 -5
-9 -37 -78 -70 -154 -34 -76 -86 -187 -116 -248 -30 -60 -54 -114 -54 -119 0
-6 -5 -10 -12 -10 -6 0 -9 -3 -5 -6 5 -5 -135 -289 -230 -464 -17 -30 -49 -91
-73 -135 -23 -44 -52 -95 -63 -115 -11 -19 -42 -73 -67 -120 -26 -47 -77 -136
-114 -198 -36 -62 -66 -115 -66 -118 0 -3 -6 -12 -12 -19 -7 -8 -33 -48 -58
-90 -142 -239 -488 -742 -587 -853 -13 -14 -23 -28 -23 -31 0 -3 -15 -22 -33
-42 -18 -20 -43 -49 -56 -65 -63 -81 -244 -276 -346 -375 -124 -119 -192 -179
-290 -259 -44 -36 -86 -71 -93 -78 -85 -80 -424 -284 -454 -274 -5 1 -8 -2 -8
-7 0 -4 -39 -23 -87 -41 -49 -18 -97 -36 -108 -41 -27 -11 -191 -57 -235 -65
-19 -3 -44 -8 -55 -10 -97 -19 -174 -25 -295 -24 -135 1 -228 8 -310 25 -89
19 -200 48 -245 65 -138 52 -205 81 -284 122 -98 51 -280 162 -309 188 -9 8
-35 27 -58 43 -22 15 -49 35 -60 45 -10 10 -28 24 -40 32 -123 86 -479 437
-684 675 -180 209 -410 509 -410 534 0 5 -4 11 -8 13 -15 6 -272 405 -272 422
0 2 -16 28 -35 57 -19 30 -35 59 -35 65 0 7 -4 14 -8 16 -7 3 -134 216 -186
311 -12 23 -45 83 -73 132 -73 131 -116 211 -205 385 -44 85 -84 159 -89 165
-5 5 -9 16 -9 25 0 9 -6 22 -12 29 -7 6 -13 15 -14 19 0 4 -47 102 -103 217
-57 116 -104 216 -105 223 -1 7 -8 18 -14 24 -7 7 -12 17 -12 24 0 7 -9 29
-20 51 -22 42 -62 132 -121 268 -57 130 -55 126 -77 175 -11 25 -36 86 -57
135 -20 50 -43 104 -50 120 -8 17 -23 55 -35 85 -21 57 -24 62 -59 142 -12 26
-21 52 -21 58 0 6 -4 18 -9 28 -14 26 -38 84 -46 111 -4 13 -14 39 -21 58 -8
18 -14 35 -14 38 0 3 -7 19 -15 35 -9 17 -13 30 -9 30 4 0 2 6 -4 13 -5 6 -31
71 -57 142 -26 72 -52 141 -58 155 -6 14 -11 30 -13 35 -1 6 -21 62 -44 125
-61 168 -102 284 -105 295 -1 6 -7 23 -13 38 -7 16 -12 33 -12 38 0 5 -4 17
-9 27 -9 16 -170 499 -175 525 -2 7 -7 23 -13 37 -6 14 -18 52 -28 85 -9 33
-26 86 -37 119 -11 32 -21 63 -23 70 -1 6 -5 18 -8 26 -11 30 -38 117 -42 138
-2 12 -7 28 -12 35 -4 6 -9 21 -11 32 -5 26 -10 50 -11 50 -2 0 -51 137 -54
150 -10 38 -52 105 -79 125 -67 50 -179 29 -232 -43 -37 -51 -30 -162 22 -338
11 -36 25 -75 31 -86 5 -11 8 -23 4 -26 -3 -4 -1 -12 4 -19 5 -7 16 -35 23
-63 7 -27 16 -54 19 -60 3 -5 6 -15 7 -22 2 -13 32 -108 41 -133 4 -8 7 -17 8
-20 0 -3 9 -32 19 -65 10 -33 19 -64 21 -70 1 -5 5 -17 8 -25 10 -24 101 -304
103 -316 2 -14 82 -252 94 -279 4 -11 18 -49 30 -85 12 -36 24 -72 27 -80 3
-8 7 -19 8 -25 4 -13 44 -125 55 -150 5 -11 20 -51 34 -90 14 -38 31 -83 37
-100 7 -16 13 -34 14 -40 3 -12 90 -245 110 -295 16 -39 37 -92 40 -100 21
-62 220 -554 297 -735 96 -224 95 -224 157 -358 23 -49 41 -90 41 -92 0 -2 20
-46 45 -99 25 -53 66 -140 91 -193 80 -172 189 -388 197 -391 4 -2 7 -11 7
-21 0 -9 4 -21 9 -26 7 -9 47 -83 165 -310 17 -33 34 -62 37 -65 3 -3 8 -10
10 -15 4 -11 103 -189 119 -215 5 -8 66 -109 135 -225 148 -248 131 -219 228
-368 42 -65 77 -122 77 -128 0 -5 5 -9 10 -9 6 0 10 -6 10 -14 0 -8 3 -16 8
-18 11 -4 92 -126 92 -138 0 -5 4 -10 9 -10 5 0 20 -17 32 -38 13 -20 27 -38
31 -40 4 -2 8 -8 8 -13 0 -5 6 -17 14 -26 8 -10 58 -76 112 -148 102 -136 156
-206 188 -240 10 -11 30 -36 45 -55 14 -19 33 -42 41 -51 8 -9 53 -58 100
-110 130 -142 401 -408 419 -409 3 -1 24 -19 46 -40 22 -22 44 -40 49 -40 5 0
16 -8 25 -18 9 -9 34 -31 56 -47 22 -16 46 -35 53 -42 7 -7 17 -13 22 -13 5 0
15 -6 22 -13 13 -13 193 -137 213 -147 6 -3 36 -22 68 -42 31 -21 61 -38 66
-38 5 0 11 -4 13 -8 10 -25 339 -164 478 -202 25 -7 52 -15 60 -18 8 -2 26 -6
40 -8 14 -2 36 -6 50 -10 26 -7 53 -11 110 -18 19 -3 35 -6 35 -6 0 -8 141
-15 280 -14 159 0 266 6 325 19 14 3 48 9 75 15 28 5 61 12 75 15 14 4 38 9
54 11 42 8 241 77 306 106 175 80 221 105 400 224 57 38 110 74 118 79 18 11
15 10 142 107 95 73 137 107 172 140 10 10 20 18 23 18 20 0 357 340 460 465
28 33 56 66 63 73 7 8 25 30 40 50 15 21 29 39 32 42 4 3 19 23 35 45 17 22
32 42 36 45 3 3 25 32 49 64 24 33 49 67 56 75 41 50 184 253 184 261 0 6 3
10 8 10 4 0 20 21 36 48 17 26 36 54 43 62 39 42 373 571 373 590 0 6 4 10 8
10 4 0 20 24 36 53 15 28 43 79 63 112 19 33 51 89 70 125 20 36 39 70 43 75
5 6 45 82 90 170 46 88 87 164 91 170 5 5 9 17 9 26 0 10 4 19 8 21 9 3 132
254 132 269 0 5 4 9 10 9 5 0 9 3 8 8 -2 6 108 241 118 251 10 11 22 -25 29
-89 2 -14 4 -26 5 -27 3 -4 5 -11 14 -63 14 -75 15 -84 21 -110 7 -35 14 -70
21 -105 2 -16 14 -66 25 -110 11 -44 22 -91 25 -105 7 -34 61 -215 82 -270 9
-25 17 -49 18 -55 1 -5 12 -37 25 -70 13 -33 24 -62 24 -65 3 -11 18 -47 36
-86 11 -22 19 -43 19 -46 0 -3 17 -41 37 -84 20 -44 37 -81 38 -84 0 -3 27
-56 58 -118 53 -104 80 -154 115 -207 6 -11 16 -30 22 -42 5 -13 30 -53 55
-90 25 -37 45 -73 45 -80 0 -6 4 -13 8 -15 4 -1 39 -48 77 -103 38 -55 73
-104 77 -110 5 -5 38 -48 74 -95 68 -87 118 -148 189 -229 59 -68 373 -379
435 -431 65 -55 285 -226 335 -260 20 -14 42 -31 50 -38 7 -6 16 -12 20 -12 5
0 97 -60 120 -78 6 -4 17 -11 25 -15 8 -4 33 -18 55 -32 22 -13 68 -39 103
-57 34 -18 62 -36 62 -40 0 -5 9 -8 20 -8 11 0 20 -5 20 -10 0 -6 3 -9 8 -8 4
1 50 -19 102 -43 135 -65 161 -77 237 -105 38 -14 74 -31 82 -37 8 -7 16 -11
18 -9 2 2 46 -11 98 -28 52 -17 96 -31 97 -30 2 1 16 -4 32 -10 35 -13 246
-67 296 -75 19 -3 50 -10 69 -15 19 -5 38 -7 42 -4 4 2 10 0 14 -6 4 -6 10 -8
13 -6 4 2 40 -1 80 -8 41 -7 84 -12 98 -11 13 0 24 -2 24 -5 0 -3 12 -5 28 -6
15 0 79 -4 142 -9 190 -14 441 -10 657 10 68 7 136 16 243 34 98 16 120 21
177 32 29 6 56 11 60 11 5 0 18 4 31 9 13 5 37 11 55 14 18 4 56 13 86 22 29
8 61 17 70 18 9 2 17 4 19 5 1 2 5 3 10 4 30 8 131 38 147 46 21 9 66 24 77
25 3 0 10 3 14 7 4 5 16 8 26 8 17 0 18 12 18 189 0 105 -4 192 -8 195 -5 3
-22 -2 -38 -10 -16 -9 -31 -16 -34 -16 -7 -1 -16 -3 -115 -36 -78 -26 -229
-70 -260 -77 -5 -1 -30 -7 -55 -14 -25 -7 -54 -15 -65 -17 -11 -2 -29 -6 -40
-8 -73 -16 -225 -48 -250 -52 -213 -34 -384 -48 -585 -47 -235 0 -414 18 -605
60 -38 8 -81 17 -95 19 -48 9 -246 67 -345 101 -622 216 -1197 602 -1654 1113
-105 118 -219 257 -261 320 -8 12 -20 28 -26 34 -23 24 -184 273 -184 284 0 7
-3 12 -8 12 -4 0 -16 17 -27 38 -10 20 -28 49 -38 65 -10 15 -15 27 -10 27 4
0 0 7 -10 14 -10 8 -19 18 -19 23 -3 21 -23 63 -30 63 -4 0 -8 9 -8 20 0 11
-3 20 -7 20 -5 0 -19 27 -33 60 -14 33 -28 60 -32 60 -5 0 -7 3 -6 8 1 4 -6
25 -16 47 -72 162 -163 415 -201 558 -8 31 -21 81 -29 110 -8 28 -17 68 -20
87 -7 46 -14 78 -20 98 -5 18 -11 47 -21 117 -3 23 -7 50 -9 60 -2 11 -7 51
-11 88 -3 37 -8 78 -11 90 -4 17 -17 347 -15 392 2 92 18 307 26 365 2 14 6
48 10 75 3 28 7 61 10 75 3 14 8 43 10 64 3 22 10 58 15 80 5 23 11 55 14 71
23 123 86 349 146 520 18 50 36 95 41 101 5 6 10 19 12 30 2 10 10 33 17 49 7
17 14 32 15 35 12 37 126 269 173 355 22 39 48 85 58 104 10 19 23 40 27 45 5
6 35 53 68 105 33 51 65 98 70 105 25 32 57 75 82 112 15 22 35 49 45 60 9 10
33 39 52 63 19 25 44 54 55 66 11 11 49 54 85 95 102 115 231 241 360 350 29
25 58 50 64 55 6 6 63 49 126 96 218 162 345 239 600 365 107 52 203 100 212
105 10 5 23 9 28 9 6 0 30 8 53 19 86 39 342 121 452 146 6 1 17 5 25 8 8 3
83 20 165 36 137 28 179 35 271 46 18 2 54 6 80 10 100 12 234 18 424 18 214
0 301 -5 470 -28 19 -3 55 -7 80 -10 25 -3 57 -7 73 -10 57 -10 73 -13 102
-20 17 -3 41 -8 55 -11 24 -5 97 -21 133 -30 81 -19 230 -63 315 -93 l82 -29
0 193 0 192 -102 31 c-90 27 -188 54 -245 67 -10 2 -49 11 -88 20 -68 15 -145
30 -215 41 -19 3 -48 8 -65 10 -49 9 -97 15 -155 20 -30 3 -71 7 -90 10 -42 5
-616 15 -621 10z"/>
</g>
</svg>
